<mxfile host="Electron" agent="Mozilla/5.0 (X11; Linux x86_64) AppleWebKit/537.36 (KHTML, like Gecko) draw.io/25.0.2 Chrome/128.0.6613.186 Electron/32.2.5 Safari/537.36" version="25.0.2">
  <diagram name="Page-1" id="0ZwcBmFUckxahIWtl0Rj">
    <mxGraphModel dx="2240" dy="1786" grid="1" gridSize="10" guides="1" tooltips="1" connect="1" arrows="1" fold="1" page="1" pageScale="1" pageWidth="850" pageHeight="1100" math="0" shadow="0">
      <root>
        <mxCell id="0" />
        <mxCell id="1" parent="0" />
        <mxCell id="dWmkUDUvr-zfA46dri_9-27" value="" style="group" vertex="1" connectable="0" parent="1">
          <mxGeometry x="-500" y="420" width="400" height="350" as="geometry" />
        </mxCell>
        <mxCell id="dWmkUDUvr-zfA46dri_9-24" value="" style="verticalLabelPosition=middle;shape=folder;fontStyle=1;spacingTop=10;tabWidth=40;tabHeight=14;tabPosition=left;html=1;whiteSpace=wrap;" vertex="1" parent="dWmkUDUvr-zfA46dri_9-27">
          <mxGeometry width="400" height="210" as="geometry" />
        </mxCell>
        <mxCell id="dWmkUDUvr-zfA46dri_9-26" value="Hyprland Sockets Initialisation" style="text;html=1;align=center;verticalAlign=middle;whiteSpace=wrap;rounded=0;fontSize=16;" vertex="1" parent="dWmkUDUvr-zfA46dri_9-27">
          <mxGeometry x="90" y="38.04347826086956" width="240" height="45.65217391304348" as="geometry" />
        </mxCell>
        <mxCell id="dWmkUDUvr-zfA46dri_9-20" value="SocketConnection" style="shape=folder;fontStyle=1;spacingTop=10;tabWidth=40;tabHeight=14;tabPosition=left;html=1;whiteSpace=wrap;" vertex="1" parent="dWmkUDUvr-zfA46dri_9-27">
          <mxGeometry x="30" y="102.50333333333334" width="125" height="87.5" as="geometry" />
        </mxCell>
        <mxCell id="dWmkUDUvr-zfA46dri_9-22" value="&amp;lt;&amp;lt;import&amp;gt;&amp;gt;" style="endArrow=open;startArrow=none;endFill=0;startFill=0;endSize=8;html=1;verticalAlign=bottom;dashed=1;labelBackgroundColor=none;rounded=0;fontSize=12;curved=1;entryX=0;entryY=0;entryDx=125;entryDy=52;entryPerimeter=0;exitX=0;exitY=0;exitDx=0;exitDy=52;exitPerimeter=0;" edge="1" parent="1" source="dWmkUDUvr-zfA46dri_9-23" target="dWmkUDUvr-zfA46dri_9-20">
          <mxGeometry width="160" relative="1" as="geometry">
            <mxPoint x="-250" y="572" as="sourcePoint" />
            <mxPoint x="-220" y="460" as="targetPoint" />
          </mxGeometry>
        </mxCell>
        <mxCell id="dWmkUDUvr-zfA46dri_9-23" value="socket-connector" style="shape=folder;fontStyle=1;spacingTop=10;tabWidth=40;tabHeight=14;tabPosition=left;html=1;whiteSpace=wrap;" vertex="1" parent="1">
          <mxGeometry x="-255" y="520" width="125" height="90" as="geometry" />
        </mxCell>
        <mxCell id="dWmkUDUvr-zfA46dri_9-28" value="" style="group" vertex="1" connectable="0" parent="1">
          <mxGeometry x="-330" y="50" width="400" height="290" as="geometry" />
        </mxCell>
        <mxCell id="dWmkUDUvr-zfA46dri_9-29" value="" style="verticalLabelPosition=middle;shape=folder;fontStyle=1;spacingTop=10;tabWidth=40;tabHeight=14;tabPosition=left;html=1;whiteSpace=wrap;" vertex="1" parent="dWmkUDUvr-zfA46dri_9-28">
          <mxGeometry width="400" height="290" as="geometry" />
        </mxCell>
        <mxCell id="dWmkUDUvr-zfA46dri_9-30" value="Workspaces Array Processing" style="text;html=1;align=center;verticalAlign=middle;whiteSpace=wrap;rounded=0;fontSize=16;" vertex="1" parent="dWmkUDUvr-zfA46dri_9-28">
          <mxGeometry x="90" y="25" width="240" height="30" as="geometry" />
        </mxCell>
        <mxCell id="dWmkUDUvr-zfA46dri_9-34" value="output-printer" style="shape=folder;fontStyle=1;spacingTop=10;tabWidth=40;tabHeight=14;tabPosition=left;html=1;whiteSpace=wrap;" vertex="1" parent="dWmkUDUvr-zfA46dri_9-28">
          <mxGeometry x="250" y="190" width="125" height="90" as="geometry" />
        </mxCell>
        <mxCell id="dWmkUDUvr-zfA46dri_9-35" value="output-builder" style="shape=folder;fontStyle=1;spacingTop=10;tabWidth=40;tabHeight=14;tabPosition=left;html=1;whiteSpace=wrap;" vertex="1" parent="dWmkUDUvr-zfA46dri_9-28">
          <mxGeometry x="250" y="65" width="125" height="90" as="geometry" />
        </mxCell>
        <mxCell id="dWmkUDUvr-zfA46dri_9-36" value="WorkspacesOutput" style="shape=folder;fontStyle=1;spacingTop=10;tabWidth=40;tabHeight=14;tabPosition=left;html=1;whiteSpace=wrap;" vertex="1" parent="dWmkUDUvr-zfA46dri_9-28">
          <mxGeometry x="50" y="100" width="125" height="90" as="geometry" />
        </mxCell>
        <mxCell id="dWmkUDUvr-zfA46dri_9-39" value="&amp;lt;&amp;lt;import&amp;gt;&amp;gt;" style="endArrow=open;startArrow=none;endFill=0;startFill=0;endSize=8;html=1;verticalAlign=bottom;dashed=1;labelBackgroundColor=none;rounded=0;fontSize=12;curved=1;entryX=0;entryY=0;entryDx=125.00000000000001;entryDy=52;entryPerimeter=0;exitX=0;exitY=0;exitDx=0;exitDy=52;exitPerimeter=0;" edge="1" parent="dWmkUDUvr-zfA46dri_9-28" source="dWmkUDUvr-zfA46dri_9-34" target="dWmkUDUvr-zfA46dri_9-36">
          <mxGeometry width="160" relative="1" as="geometry">
            <mxPoint x="270" y="-20" as="sourcePoint" />
            <mxPoint x="170" y="-20" as="targetPoint" />
          </mxGeometry>
        </mxCell>
        <mxCell id="dWmkUDUvr-zfA46dri_9-40" value="&amp;lt;&amp;lt;import&amp;gt;&amp;gt;" style="endArrow=open;startArrow=none;endFill=0;startFill=0;endSize=8;html=1;verticalAlign=bottom;dashed=1;labelBackgroundColor=none;rounded=0;fontSize=12;curved=1;entryX=0;entryY=0;entryDx=125.00000000000001;entryDy=52;entryPerimeter=0;exitX=0;exitY=0;exitDx=0;exitDy=52;exitPerimeter=0;" edge="1" parent="dWmkUDUvr-zfA46dri_9-28" source="dWmkUDUvr-zfA46dri_9-35" target="dWmkUDUvr-zfA46dri_9-36">
          <mxGeometry width="160" relative="1" as="geometry">
            <mxPoint x="260" y="117" as="sourcePoint" />
            <mxPoint x="185" y="162" as="targetPoint" />
          </mxGeometry>
        </mxCell>
        <mxCell id="dWmkUDUvr-zfA46dri_9-32" value="cJSON" style="shape=folder;fontStyle=1;spacingTop=10;tabWidth=40;tabHeight=14;tabPosition=left;html=1;whiteSpace=wrap;" vertex="1" parent="1">
          <mxGeometry x="140" y="170" width="125" height="90" as="geometry" />
        </mxCell>
        <mxCell id="dWmkUDUvr-zfA46dri_9-33" value="bit-array-manipulator" style="shape=folder;fontStyle=1;spacingTop=10;tabWidth=40;tabHeight=14;tabPosition=left;html=1;whiteSpace=wrap;" vertex="1" parent="1">
          <mxGeometry x="140" y="60" width="125" height="90" as="geometry" />
        </mxCell>
        <mxCell id="dWmkUDUvr-zfA46dri_9-37" value="&amp;lt;&amp;lt;access&amp;gt;&amp;gt;" style="endArrow=open;startArrow=none;endFill=0;startFill=0;endSize=8;html=1;verticalAlign=bottom;dashed=1;labelBackgroundColor=none;rounded=0;fontSize=12;curved=1;entryX=0;entryY=0;entryDx=0;entryDy=52;entryPerimeter=0;exitX=0;exitY=0;exitDx=125;exitDy=52;exitPerimeter=0;" edge="1" parent="1" source="dWmkUDUvr-zfA46dri_9-35" target="dWmkUDUvr-zfA46dri_9-32">
          <mxGeometry width="160" relative="1" as="geometry">
            <mxPoint x="210" y="84.70000000000005" as="sourcePoint" />
            <mxPoint x="110" y="84.70000000000005" as="targetPoint" />
          </mxGeometry>
        </mxCell>
        <mxCell id="dWmkUDUvr-zfA46dri_9-38" value="&amp;lt;&amp;lt;access&amp;gt;&amp;gt;" style="endArrow=open;startArrow=none;endFill=0;startFill=0;endSize=8;html=1;verticalAlign=bottom;dashed=1;labelBackgroundColor=none;rounded=0;fontSize=12;curved=1;entryX=0;entryY=0;entryDx=0;entryDy=52;entryPerimeter=0;exitX=0;exitY=0;exitDx=124.99999999999999;exitDy=52;exitPerimeter=0;" edge="1" parent="1" source="dWmkUDUvr-zfA46dri_9-35" target="dWmkUDUvr-zfA46dri_9-33">
          <mxGeometry width="160" relative="1" as="geometry">
            <mxPoint x="35" y="177" as="sourcePoint" />
            <mxPoint x="150" y="232" as="targetPoint" />
          </mxGeometry>
        </mxCell>
        <mxCell id="dWmkUDUvr-zfA46dri_9-41" value="" style="group" vertex="1" connectable="0" parent="1">
          <mxGeometry x="-820" y="50" width="400" height="220" as="geometry" />
        </mxCell>
        <mxCell id="dWmkUDUvr-zfA46dri_9-42" value="" style="verticalLabelPosition=middle;shape=folder;fontStyle=1;spacingTop=10;tabWidth=40;tabHeight=14;tabPosition=left;html=1;whiteSpace=wrap;" vertex="1" parent="dWmkUDUvr-zfA46dri_9-41">
          <mxGeometry width="400" height="219.99999999999997" as="geometry" />
        </mxCell>
        <mxCell id="dWmkUDUvr-zfA46dri_9-43" value="Hyprland Data Reading and Parsing" style="text;html=1;align=center;verticalAlign=middle;whiteSpace=wrap;rounded=0;fontSize=16;" vertex="1" parent="dWmkUDUvr-zfA46dri_9-41">
          <mxGeometry x="50" y="23.913043478260867" width="300" height="28.69565217391304" as="geometry" />
        </mxCell>
        <mxCell id="dWmkUDUvr-zfA46dri_9-44" value="HyprlandData" style="shape=folder;fontStyle=1;spacingTop=10;tabWidth=40;tabHeight=14;tabPosition=left;html=1;whiteSpace=wrap;" vertex="1" parent="1">
          <mxGeometry x="-800" y="150" width="125" height="90" as="geometry" />
        </mxCell>
        <mxCell id="dWmkUDUvr-zfA46dri_9-45" value="&amp;lt;&amp;lt;import&amp;gt;&amp;gt;" style="endArrow=open;startArrow=none;endFill=0;startFill=0;endSize=8;html=1;verticalAlign=bottom;dashed=1;labelBackgroundColor=none;rounded=0;fontSize=12;curved=1;entryX=0;entryY=0;entryDx=125;entryDy=52;entryPerimeter=0;exitX=0;exitY=0;exitDx=0;exitDy=52;exitPerimeter=0;" edge="1" parent="1" source="dWmkUDUvr-zfA46dri_9-46" target="dWmkUDUvr-zfA46dri_9-44">
          <mxGeometry width="160" relative="1" as="geometry">
            <mxPoint x="-570" y="202" as="sourcePoint" />
            <mxPoint x="-540" y="90" as="targetPoint" />
          </mxGeometry>
        </mxCell>
        <mxCell id="dWmkUDUvr-zfA46dri_9-46" value="hyprland-data-reader" style="shape=folder;fontStyle=1;spacingTop=10;tabWidth=40;tabHeight=14;tabPosition=left;html=1;whiteSpace=wrap;" vertex="1" parent="1">
          <mxGeometry x="-575" y="150" width="125" height="90" as="geometry" />
        </mxCell>
        <mxCell id="dWmkUDUvr-zfA46dri_9-49" value="&amp;lt;&amp;lt;access&amp;gt;&amp;gt;" style="endArrow=open;startArrow=none;endFill=0;startFill=0;endSize=8;html=1;verticalAlign=bottom;dashed=1;labelBackgroundColor=none;rounded=0;fontSize=12;curved=1;entryX=0;entryY=0;entryDx=0;entryDy=52;entryPerimeter=0;exitX=0;exitY=0;exitDx=125;exitDy=52;exitPerimeter=0;" edge="1" parent="1" source="dWmkUDUvr-zfA46dri_9-46" target="dWmkUDUvr-zfA46dri_9-36">
          <mxGeometry x="0.0021" width="160" relative="1" as="geometry">
            <mxPoint x="-410" y="-15" as="sourcePoint" />
            <mxPoint x="-315" y="-70" as="targetPoint" />
            <mxPoint as="offset" />
          </mxGeometry>
        </mxCell>
        <mxCell id="dWmkUDUvr-zfA46dri_9-54" value="&amp;lt;&amp;lt;access&amp;gt;&amp;gt;" style="endArrow=open;startArrow=none;endFill=0;startFill=0;endSize=8;html=1;verticalAlign=bottom;dashed=1;labelBackgroundColor=none;rounded=0;fontSize=12;curved=1;entryX=0;entryY=0;entryDx=20;entryDy=0;entryPerimeter=0;exitX=0.5;exitY=1;exitDx=0;exitDy=0;exitPerimeter=0;" edge="1" parent="1" source="dWmkUDUvr-zfA46dri_9-46" target="dWmkUDUvr-zfA46dri_9-20">
          <mxGeometry x="0.0021" width="160" relative="1" as="geometry">
            <mxPoint x="-597.5" y="350" as="sourcePoint" />
            <mxPoint x="-427.5" y="350" as="targetPoint" />
            <mxPoint as="offset" />
          </mxGeometry>
        </mxCell>
        <mxCell id="dWmkUDUvr-zfA46dri_9-52" value="hyprland-event-poller" style="shape=folder;fontStyle=1;spacingTop=10;tabWidth=40;tabHeight=14;tabPosition=left;html=1;whiteSpace=wrap;" vertex="1" parent="1">
          <mxGeometry x="45" y="540.0033333333333" width="125" height="87.5" as="geometry" />
        </mxCell>
        <mxCell id="dWmkUDUvr-zfA46dri_9-55" value="&amp;lt;&amp;lt;access&amp;gt;&amp;gt;" style="endArrow=open;startArrow=none;endFill=0;startFill=0;endSize=8;html=1;verticalAlign=bottom;dashed=1;labelBackgroundColor=none;rounded=0;fontSize=12;curved=1;entryX=0.75;entryY=1;entryDx=0;entryDy=0;entryPerimeter=0;exitX=0;exitY=0;exitDx=0;exitDy=50.75;exitPerimeter=0;" edge="1" parent="1" source="dWmkUDUvr-zfA46dri_9-52" target="dWmkUDUvr-zfA46dri_9-20">
          <mxGeometry x="0.0021" width="160" relative="1" as="geometry">
            <mxPoint x="-223.5" y="720" as="sourcePoint" />
            <mxPoint x="-161.5" y="1003" as="targetPoint" />
            <mxPoint as="offset" />
            <Array as="points">
              <mxPoint x="-160" y="730" />
            </Array>
          </mxGeometry>
        </mxCell>
        <mxCell id="dWmkUDUvr-zfA46dri_9-56" value="&amp;lt;&amp;lt;access&amp;gt;&amp;gt;" style="endArrow=open;startArrow=none;endFill=0;startFill=0;endSize=8;html=1;verticalAlign=bottom;dashed=1;labelBackgroundColor=none;rounded=0;fontSize=12;curved=1;entryX=0;entryY=0;entryDx=125;entryDy=90;entryPerimeter=0;exitX=0.5;exitY=0.114;exitDx=0;exitDy=0;exitPerimeter=0;" edge="1" parent="1" source="dWmkUDUvr-zfA46dri_9-52" target="dWmkUDUvr-zfA46dri_9-35">
          <mxGeometry x="0.0021" width="160" relative="1" as="geometry">
            <mxPoint x="130" y="460" as="sourcePoint" />
            <mxPoint x="192" y="743" as="targetPoint" />
            <mxPoint as="offset" />
            <Array as="points">
              <mxPoint x="120" y="390" />
            </Array>
          </mxGeometry>
        </mxCell>
      </root>
    </mxGraphModel>
  </diagram>
</mxfile>
